<svg width="25" height="25" viewBox="0 0 25 25" fill="none" xmlns="http://www.w3.org/2000/svg">
<mask id="mask0_2730_2624" style="mask-type:alpha" maskUnits="userSpaceOnUse" x="2" y="4" width="21" height="16">
<path fill-rule="evenodd" clip-rule="evenodd" d="M3.90696 4.4082L20.584 4.4082C21.5047 4.4082 22.2507 5.15531 22.2494 6.07616L22.2325 18.3078C22.2312 19.2287 21.4832 19.9758 20.5624 19.9758L3.88537 19.9758C2.96466 19.9758 2.2187 19.2287 2.21998 18.3078L2.23694 6.07616C2.23822 5.15531 2.98625 4.4082 3.90696 4.4082ZM10.5701 9.96805C10.5718 8.74141 9.57601 7.74411 8.34955 7.74411C7.1231 7.74411 6.12456 8.74141 6.12286 9.96805C6.12116 11.1947 7.11693 12.192 8.34339 12.192C9.56984 12.192 10.5684 11.1947 10.5701 9.96805ZM12.2295 15.9727C12.2289 16.341 11.8811 16.6399 11.4503 16.6399L5.22417 16.6399C4.79334 16.6399 4.44632 16.341 4.44683 15.9727L4.44775 15.3055C4.44929 14.2005 5.49632 13.304 6.78532 13.304L6.95904 13.304C7.38614 13.4812 7.85157 13.5819 8.34146 13.5819C8.83135 13.5819 9.30053 13.4812 9.72465 13.304L9.89837 13.304C11.1874 13.304 12.2319 14.2005 12.2304 15.3055L12.2295 15.9727ZM19.7363 14.4159C19.8892 14.4159 20.0144 14.2908 20.0146 14.1379L20.0154 13.5819C20.0156 13.429 19.8907 13.304 19.7378 13.304L14.7347 13.304C14.5818 13.304 14.4566 13.429 14.4564 13.5819L14.4556 14.1379C14.4554 14.2908 14.5803 14.4159 14.7332 14.4159L19.7363 14.4159ZM20.0177 11.914C20.0175 12.0669 19.8923 12.192 19.7394 12.192L14.7363 12.192C14.5834 12.192 14.4585 12.0669 14.4587 11.914L14.4595 11.358C14.4597 11.2051 14.5849 11.08 14.7378 11.08L19.7409 11.08C19.8938 11.08 20.0187 11.2051 20.0185 11.358L20.0177 11.914ZM19.7425 9.96805C19.8953 9.96805 20.0206 9.84295 20.0208 9.69005L20.0216 9.13407C20.0218 8.98117 19.8969 8.85608 19.744 8.85608L14.7409 8.85608C14.588 8.85608 14.4628 8.98117 14.4625 9.13407L14.4618 9.69005C14.4616 9.84295 14.5865 9.96804 14.7393 9.96804L19.7425 9.96805Z" fill="white"/>
</mask>
<g mask="url(#mask0_2730_2624)">
<rect width="24.015" height="24.0185" transform="matrix(1 6.07784e-08 -0.0013869 0.999999 0.243652 0.183594)" fill="url(#paint0_linear_2730_2624)"/>
</g>
<defs>
<linearGradient id="paint0_linear_2730_2624" x1="12.0075" y1="0" x2="12.0075" y2="24.0185" gradientUnits="userSpaceOnUse">
<stop stop-color="#58E1CA"/>
<stop offset="1" stop-color="#23B39B"/>
</linearGradient>
</defs>
</svg>
