<svg width="25" height="25" viewBox="0 0 25 25" fill="none" xmlns="http://www.w3.org/2000/svg">
<mask id="mask0_2731_2665" style="mask-type:alpha" maskUnits="userSpaceOnUse" x="2" y="2" width="21" height="21">
<path fill-rule="evenodd" clip-rule="evenodd" d="M20.1747 7.87032C20.6575 8.23487 20.9849 8.48975 21.3303 8.76062C21.7835 9.11581 22.0484 9.65951 22.049 10.2348L22.0495 10.6505L18.3088 13.3573L18.3011 6.14749L5.82233 6.14749L5.83002 13.3573L2.08351 10.6505L2.08307 10.2348C2.08253 9.65925 2.34639 9.11566 2.79863 8.76062C3.14346 8.48975 3.47036 8.23448 3.95236 7.87032L3.95052 6.14749C3.94941 5.11278 4.78654 4.274 5.82033 4.274L8.84447 4.274C8.92063 4.2188 8.9934 4.16585 9.06849 4.11122C9.1102 4.08088 9.15262 4.05001 9.19672 4.01796C9.30664 3.93764 9.43471 3.83838 9.57603 3.72886C10.2773 3.18537 11.3047 2.38914 12.0577 2.40051C12.8111 2.38913 13.8413 3.18634 14.5436 3.72986C14.6846 3.83898 14.8124 3.93788 14.9221 4.01796C14.9663 4.05004 15.0089 4.08093 15.0507 4.1113C15.1258 4.1659 15.1987 4.21882 15.2749 4.274L18.2991 4.274C19.3329 4.274 20.1718 5.11278 20.1729 6.14749L20.1747 7.87032ZM15.1864 10.8312L8.94701 10.8312C8.60228 10.8312 8.32278 10.5518 8.32241 10.2067L8.32174 9.58223C8.32137 9.23719 8.60029 8.95773 8.94501 8.95773L15.1844 8.95773C15.5291 8.95773 15.8086 9.23719 15.809 9.58223L15.8096 10.2067C15.81 10.5518 15.5311 10.8312 15.1864 10.8312ZM8.95101 14.5782C8.60629 14.5782 8.32678 14.2987 8.32641 13.9537L8.32574 13.3292C8.32537 12.9842 8.60429 12.7047 8.94901 12.7047L15.1884 12.7047C15.5331 12.7047 15.8126 12.9842 15.813 13.3292L15.8136 13.9537C15.814 14.2987 15.5351 14.5782 15.1904 14.5782L8.95101 14.5782ZM12.0751 18.6815C11.4348 18.6815 10.7942 18.484 10.2471 18.0887L2.08516 12.1918L2.09404 20.5109C2.09514 21.5456 2.93406 22.3844 3.96785 22.3844L20.1902 22.3844C21.224 22.3844 22.0611 21.5456 22.06 20.5109L22.0511 12.1918L13.9018 18.0887C13.3555 18.4837 12.7154 18.6815 12.0751 18.6815Z" fill="white"/>
</mask>
<g mask="url(#mask0_2731_2665)">
<rect width="24.006" height="24.0275" transform="matrix(1 -2.86576e-08 0.00106739 0.999999 0.0527344 0.359375)" fill="url(#paint0_linear_2731_2665)"/>
</g>
<defs>
<linearGradient id="paint0_linear_2731_2665" x1="12.003" y1="0" x2="12.003" y2="24.0275" gradientUnits="userSpaceOnUse">
<stop stop-color="#58E1CA"/>
<stop offset="1" stop-color="#23B39B"/>
</linearGradient>
</defs>
</svg>
