<svg width="20" height="20" viewBox="0 0 20 20" fill="none" xmlns="http://www.w3.org/2000/svg">
<path d="M18.5571 16.4581L11.8892 9.79025L4.09896 2H3.49015L3.36584 2.31588C3.03773 3.14964 2.89755 4.0024 2.96048 4.78185C3.03222 5.67034 3.36976 6.43957 3.93666 7.00647L10.0181 13.088L10.8203 12.2858L16.4426 18.5726C17.0019 19.1319 17.9646 19.1651 18.5571 18.5726C19.1401 17.9896 19.1401 17.0411 18.5571 16.4581Z" fill="white"/>
<path d="M7.2002 11.6797L2.43721 16.4427C1.85426 17.0256 1.85426 17.9742 2.43721 18.5571C2.99098 19.1109 3.94899 19.1598 4.55166 18.5571L9.31468 13.7941L7.2002 11.6797Z" fill="white"/>
<path d="M18.2774 4.83299L15.5756 7.5348L14.8707 6.82997L17.5725 4.12813L16.8677 3.4233L14.1659 6.12511L13.4611 5.42028L16.1629 2.71847L15.4581 2.01367L11.934 5.53782C11.5029 5.96894 11.2454 6.54139 11.209 7.14977C11.1998 7.30391 11.1649 7.45552 11.1069 7.59973L13.3962 9.88901C13.5404 9.83099 13.6921 9.79608 13.8462 9.78688C14.4546 9.75058 15.027 9.49309 15.4581 9.06196L18.9823 5.53785L18.2774 4.83299Z" fill="white"/>
</svg>
