<svg width="25" height="25" viewBox="0 0 25 25" fill="none" xmlns="http://www.w3.org/2000/svg">
<mask id="mask0_2730_2632" style="mask-type:alpha" maskUnits="userSpaceOnUse" x="2" y="4" width="21" height="18">
<path fill-rule="evenodd" clip-rule="evenodd" d="M19.8198 9.15834L21.4647 9.15834C22.1562 9.15834 22.7144 9.7176 22.7137 10.4098L22.7106 13.5386C22.7103 13.8827 22.4287 14.1643 22.0849 14.1643L3.33123 14.1643C2.98741 14.1643 2.70638 13.8827 2.70671 13.5386L2.70975 10.4098C2.71042 9.7176 3.26967 9.15834 3.96121 9.15834L5.6842 9.15834C5.43852 8.68512 5.29056 8.16105 5.29111 7.59397C5.29295 5.69716 6.83772 4.15234 8.73263 4.15234C10.3579 4.15234 11.4081 4.98537 12.7543 6.82351C14.104 4.98537 15.1558 4.15234 16.7811 4.15234C18.676 4.15234 20.2178 5.69716 20.2159 7.59397C20.2154 8.16105 20.0625 8.68512 19.8198 9.15834ZM13.951 21.6733L20.2023 21.6733C20.8938 21.6733 21.453 21.1141 21.4537 20.4218L21.4586 15.4158L13.9571 15.4158L13.951 21.6733ZM3.95028 20.4218C3.94961 21.1141 4.50777 21.6733 5.19931 21.6733L11.4505 21.6733L11.4566 15.4158L3.95514 15.4158L3.95028 20.4218ZM8.72386 9.15834C7.86041 9.15834 7.16174 8.45828 7.16257 7.59396C7.16341 6.72965 7.86345 6.02959 8.7269 6.02959C9.5044 6.02959 10.0786 6.15865 12.0878 9.15834L8.72386 9.15834ZM13.4123 9.15834L16.7762 9.15834C17.6397 9.15834 18.3397 8.45828 18.3406 7.59397C18.3414 6.72965 17.6427 6.02959 16.7793 6.02959C15.9822 6.02959 15.4234 6.16648 13.4123 9.15834Z" fill="white"/>
</mask>
<g mask="url(#mask0_2730_2632)">
<rect width="24.0047" height="24.0288" transform="matrix(1 1.48954e-08 -0.000970333 1 0.71875 0.898438)" fill="url(#paint0_linear_2730_2632)"/>
</g>
<defs>
<linearGradient id="paint0_linear_2730_2632" x1="12.0024" y1="0" x2="12.0024" y2="24.0288" gradientUnits="userSpaceOnUse">
<stop stop-color="#58E1CA"/>
<stop offset="1" stop-color="#23B39B"/>
</linearGradient>
</defs>
</svg>
