<svg width="22" height="22" viewBox="0 0 22 22" fill="none" xmlns="http://www.w3.org/2000/svg">
<g clip-path="url(#clip0_614_804)">
<path d="M19.1393 1.35889L19.1393 0L9.191 0L9.191 1.3658H6.43262L6.43262 9.57868C8.04691 10.4564 9.14506 12.1678 9.14506 14.1309C9.14506 15.2973 8.37992 17.2012 6.8058 19.9512C6.68068 20.1698 6.55585 20.384 6.43262 20.5926L6.43262 21.8322H13.5323L13.5323 17.672H14.8889L14.8889 21.8322H21.8523L21.8523 1.36808L19.1393 1.35889ZM12.1757 16.2134H10.8191L10.8191 14.8568H12.1757L12.1757 16.2134ZM12.1757 13.5002H10.8191L10.8191 12.1437H12.1757L12.1757 13.5002ZM12.1757 10.8494H10.8191L10.8191 9.49283H12.1757L12.1757 10.8494ZM14.8889 16.2134H13.5323L13.5323 14.8568H14.8889L14.8889 16.2134ZM14.8889 13.5002H13.5323L13.5323 12.1437H14.8889L14.8889 13.5002ZM14.8889 10.8494H13.5323L13.5323 9.49283H14.8889L14.8889 10.8494ZM16.2455 7.68402H14.889L14.889 6.10131H13.5323L13.5323 7.68402H12.1757L12.1757 3.16207H13.5323L13.5323 4.74478H14.889L14.889 3.16207H16.2455L16.2455 7.68402ZM17.6021 16.2134H16.2455L16.2455 14.8568H17.6021L17.6021 16.2134ZM17.6021 13.5002H16.2455L16.2455 12.1437H17.6021L17.6021 13.5002ZM17.6021 10.8494H16.2455L16.2455 9.49283H17.6021L17.6021 10.8494Z" fill="white"/>
<path d="M3.96757 10.3086C1.86064 10.3086 0.146484 12.0227 0.146484 14.1296C0.146484 14.6418 0.426555 15.9904 2.30244 19.2689C2.91784 20.3445 3.53852 21.3336 3.96757 21.9988C4.39657 21.3336 5.01729 20.3445 5.63269 19.2689C7.50854 15.9904 7.78865 14.6417 7.78865 14.1296C7.78861 12.0227 6.0745 10.3086 3.96757 10.3086ZM3.96757 16.6484C2.57869 16.6484 1.44874 15.5185 1.44874 14.1296C1.44874 12.7407 2.57864 11.6108 3.96757 11.6108C5.35645 11.6108 6.48639 12.7407 6.48639 14.1296C6.48639 15.5185 5.35645 16.6484 3.96757 16.6484Z" fill="white"/>
<path d="M3.96748 12.9688C3.3266 12.9688 2.80518 13.4901 2.80518 14.1311C2.80518 14.772 3.32656 15.2934 3.96748 15.2934C4.6084 15.2934 5.12979 14.772 5.12979 14.1311C5.12979 13.4902 4.60832 12.9688 3.96748 12.9688Z" fill="white"/>
</g>
<defs>
<clipPath id="clip0_614_804">
<rect width="22" height="22" fill="white" transform="translate(-0.000488281)"/>
</clipPath>
</defs>
</svg>
