<svg width="25" height="25" viewBox="0 0 25 25" fill="none" xmlns="http://www.w3.org/2000/svg">
<path fill-rule="evenodd" clip-rule="evenodd" d="M5.61318 2.50993C5.90531 2.38385 6.20803 2.61266 6.2859 2.92156C6.61435 4.2244 7.79261 5.18875 9.19556 5.18875L15.1956 5.18875C16.5986 5.18875 17.7764 4.22441 18.1042 2.92156C18.1819 2.61266 18.4845 2.38385 18.7767 2.50993C20.1994 3.12381 21.1955 4.54051 21.1959 6.19013L21.1992 19.2081C21.1997 21.4203 19.4093 23.2137 17.2001 23.2137L7.20001 23.2137C4.99085 23.2137 3.19952 21.4203 3.19898 19.2081L3.19575 6.19013C3.19534 4.54051 4.19081 3.12381 5.61318 2.50993ZM9.19681 10.1957C9.19694 10.7487 8.74933 11.1971 8.19704 11.1971C7.64475 11.1971 7.19692 10.7487 7.19678 10.1957C7.19665 9.64262 7.64426 9.19429 8.19655 9.19429C8.74884 9.19429 9.19667 9.64262 9.19681 10.1957ZM11.1968 10.1957C11.1967 9.64262 11.6443 9.19429 12.1966 9.19429L16.1966 9.19429C16.7489 9.19429 17.1968 9.64262 17.1969 10.1957C17.197 10.7487 16.7494 11.1971 16.1971 11.1971L12.1971 11.1971C11.6448 11.1971 11.197 10.7487 11.1968 10.1957ZM12.1976 13.1998C11.6453 13.1998 11.1977 13.6482 11.1978 14.2012C11.198 14.7543 11.6458 15.2026 12.1981 15.2026L16.1981 15.2026C16.7504 15.2026 17.198 14.7543 17.1979 14.2012C17.1977 13.6482 16.7499 13.1998 16.1976 13.1998L12.1976 13.1998ZM12.1986 17.2054C11.6463 17.2054 11.1987 17.6537 11.1988 18.2067C11.199 18.7598 11.6468 19.2081 12.1991 19.2081L14.1991 19.2081C14.7514 19.2081 15.199 18.7598 15.1989 18.2067C15.1987 17.6537 14.7509 17.2054 14.1986 17.2054L12.1986 17.2054ZM9.1978 14.2012C9.19794 14.7543 8.75033 15.2026 8.19804 15.2026C7.64575 15.2026 7.19791 14.7543 7.19778 14.2012C7.19764 13.6482 7.64525 13.1998 8.19754 13.1998C8.74983 13.1998 9.19766 13.6482 9.1978 14.2012ZM9.19879 18.2067C9.19893 18.7598 8.75132 19.2081 8.19903 19.2081C7.64674 19.2081 7.19891 18.7598 7.19877 18.2067C7.19863 17.6537 7.64624 17.2054 8.19853 17.2054C8.75082 17.2054 9.19866 17.6537 9.19879 18.2067Z" fill="url(#paint0_linear_2731_2664)"/>
<path d="M9.19484 1.18359L15.1949 1.18359C15.7472 1.18359 16.195 1.63193 16.1952 2.18498C16.1953 2.73803 15.7477 3.18636 15.1954 3.18636L9.19533 3.18636C8.64304 3.18636 8.19521 2.73803 8.19507 2.18498C8.19494 1.63193 8.64254 1.18359 9.19484 1.18359Z" fill="url(#paint1_linear_2731_2664)"/>
<defs>
<linearGradient id="paint0_linear_2731_2664" x1="12.1949" y1="2.47461" x2="12.1949" y2="23.2137" gradientUnits="userSpaceOnUse">
<stop stop-color="#58E1CA"/>
<stop offset="1" stop-color="#23B39B"/>
</linearGradient>
<linearGradient id="paint1_linear_2731_2664" x1="12.1949" y1="1.18359" x2="12.1949" y2="3.18636" gradientUnits="userSpaceOnUse">
<stop stop-color="#58E1CA"/>
<stop offset="1" stop-color="#23B39B"/>
</linearGradient>
</defs>
</svg>
