<svg width="22" height="22" viewBox="0 0 22 22" fill="none" xmlns="http://www.w3.org/2000/svg">
<path d="M10.9996 5.52344C7.9795 5.52344 5.52246 7.98047 5.52246 11.0005C5.52246 14.0206 7.9795 16.4776 10.9996 16.4776C14.0196 16.4776 16.4767 14.0206 16.4767 11.0005C16.4767 7.98047 14.0196 5.52344 10.9996 5.52344ZM11.6441 13.6889L11.6441 13.762C11.6441 14.1179 11.3555 14.4065 10.9996 14.4065C10.6436 14.4065 10.355 14.1179 10.355 13.762L10.355 13.7162H10.3092C9.95327 13.7162 9.66469 13.4276 9.66469 13.0716C9.66469 12.7157 9.95327 12.4271 10.3092 12.4271H11.3448C11.5604 12.4271 11.7358 12.2517 11.7358 12.0361C11.7358 11.8205 11.5604 11.6451 11.3448 11.6451H10.6682C9.73421 11.6451 8.97431 10.8846 8.97431 9.94977C8.97431 9.12778 9.57213 8.44385 10.3551 8.30931L10.3551 8.23906C10.3551 7.88311 10.6436 7.59453 10.9996 7.59453C11.3556 7.59453 11.6441 7.88311 11.6441 8.23906L11.6441 8.28487H11.6899C12.0459 8.28487 12.3345 8.57344 12.3345 8.9294C12.3345 9.28535 12.0459 9.57393 11.6899 9.57393H10.6371C10.431 9.57393 10.2634 9.74224 10.2634 9.94909C10.2634 10.1738 10.445 10.356 10.6682 10.356H11.3448C12.2712 10.356 13.0249 11.1096 13.0249 12.036C13.0248 12.8603 12.4281 13.5472 11.6441 13.6889Z" fill="white"/>
<path d="M11.173 1.38291L11.4556 1.10026C11.7073 0.848595 11.7073 0.440478 11.4556 0.188767C11.204 -0.0629438 10.7958 -0.0629009 10.5441 0.188767L9.16341 1.56953C9.04254 1.6904 8.97461 1.85432 8.97461 2.02525C8.97461 2.19618 9.0425 2.36011 9.16341 2.48098L10.5442 3.86174C10.67 3.98759 10.835 4.0505 10.9999 4.0505C11.1648 4.0505 11.3298 3.98759 11.4556 3.86169C11.7073 3.60998 11.7073 3.20191 11.4556 2.9502L11.1774 2.67202C15.689 2.76689 19.3301 6.46607 19.3301 11C19.3301 11.356 19.6187 11.6445 19.9746 11.6445C20.3306 11.6445 20.6191 11.356 20.6191 11C20.6191 5.75378 16.3975 1.47568 11.173 1.38291Z" fill="white"/>
<path d="M11.4558 18.1382C11.2042 17.8866 10.796 17.8865 10.5443 18.1382C10.2926 18.3899 10.2926 18.798 10.5443 19.0497L10.8226 19.3279C6.31092 19.2331 2.66992 15.5339 2.66992 11C2.66992 10.644 2.38134 10.3555 2.02539 10.3555C1.66944 10.3555 1.38086 10.644 1.38086 11C1.38086 16.2462 5.60254 20.5243 10.827 20.6171L10.5444 20.8997C10.2927 21.1514 10.2927 21.5595 10.5444 21.8112C10.6702 21.9371 10.8351 22 11.0001 22C11.1651 22 11.33 21.9371 11.4558 21.8112L12.8366 20.4305C12.9575 20.3096 13.0254 20.1457 13.0254 19.9748C13.0254 19.8038 12.9575 19.6399 12.8366 19.519L11.4558 18.1382Z" fill="white"/>
</svg>
