<svg width="23" height="22" viewBox="0 0 23 22" fill="none" xmlns="http://www.w3.org/2000/svg">
<mask id="mask0_614_929" style="mask-type:alpha" maskUnits="userSpaceOnUse" x="1" y="2" width="20" height="18">
<path fill-rule="evenodd" clip-rule="evenodd" d="M17.5271 7.56185H19.0346C19.6684 7.56185 20.1799 8.07389 20.1793 8.70768L20.1766 11.5723C20.1762 11.8874 19.9182 12.1452 19.6031 12.1452L2.41558 12.1452C2.10048 12.1452 1.84292 11.8874 1.84322 11.5723L1.846 8.70768C1.84662 8.07389 2.35916 7.56185 2.99295 7.56185H4.57205C4.34688 7.12858 4.21128 6.64876 4.21179 6.12956C4.21347 4.3929 5.62923 2.97852 7.36588 2.97852C8.85547 2.97852 9.81794 3.74121 11.0517 5.42415C12.2886 3.74121 13.2526 2.97852 14.7422 2.97852C16.4788 2.97852 17.8919 4.3929 17.8902 6.12956C17.8897 6.64876 17.7496 7.12858 17.5271 7.56185ZM2.98294 17.8744C2.98232 18.5081 3.49387 19.0202 4.12766 19.0202H9.85683L9.86238 13.291H2.98738L2.98294 17.8744ZM12.1485 19.0202H17.8777C18.5114 19.0202 19.024 18.5082 19.0246 17.8744L19.029 13.291L12.154 13.291L12.1485 19.0202ZM7.35785 7.56186C6.56651 7.56186 5.92618 6.92091 5.92695 6.12957C5.92772 5.33823 6.56929 4.69728 7.36063 4.69728C8.0732 4.69728 8.59945 4.81545 10.4409 7.56186L7.35785 7.56186ZM11.6547 7.56187H14.7377C15.5291 7.56187 16.1706 6.92092 16.1714 6.12958C16.1722 5.33824 15.5319 4.69729 14.7405 4.69729C14.01 4.69729 13.4979 4.82262 11.6547 7.56187Z" fill="white"/>
</mask>
<g mask="url(#mask0_614_929)">
<rect width="22" height="22" transform="matrix(1 0 -0.000970289 1 0.0209961 0)" fill="white"/>
</g>
</svg>
