<svg width="22" height="22" viewBox="0 0 22 22" fill="none" xmlns="http://www.w3.org/2000/svg">
<path d="M18.0054 0.00390625C18.4798 0.595663 18.7645 1.34578 18.7645 2.16146L18.7645 2.17751L18.7645 19.8222L18.7645 19.8382C18.7645 20.6539 18.4798 21.404 18.0054 21.9958C19.1488 21.9291 20.0587 20.9799 20.0587 19.8222L20.0587 2.17751C20.0587 1.01983 19.1488 0.0705102 18.0054 0.00390625Z" fill="white"/>
<path d="M8.646 8.41211C8.69763 9.29215 8.85301 10.1156 9.08983 10.7375C9.35435 11.4318 9.63354 11.6474 9.70532 11.6474C9.7771 11.6474 10.0563 11.4318 10.3208 10.7375C10.5577 10.1156 10.713 9.29215 10.7646 8.41211H8.646Z" fill="white"/>
<path d="M9.70532 3.88281C9.63354 3.88281 9.35435 4.09846 9.08983 4.79275C8.85297 5.41457 8.69763 6.23806 8.646 7.1181H10.7646C10.713 6.23806 10.5576 5.41457 10.3208 4.79275C10.0563 4.09846 9.7771 3.88281 9.70532 3.88281Z" fill="white"/>
<path d="M12.0612 7.11698H13.5338C13.3311 5.91397 12.5733 4.89709 11.5337 4.33984C11.8251 5.10855 12.0075 6.07668 12.0612 7.11698Z" fill="white"/>
<path d="M7.35007 7.11698C7.40377 6.07668 7.58612 5.10855 7.87755 4.33984C6.83794 4.89709 6.08014 5.91397 5.87744 7.11698H7.35007Z" fill="white"/>
<path d="M15.2633 0L1.94092 0L1.94092 22H15.2633C16.4802 22 17.4703 21.0231 17.4703 19.8223L17.4703 2.17765C17.4703 0.976886 16.4802 0 15.2633 0V0ZM11.6468 18.7647H7.76445L7.76445 17.4706H11.6468L11.6468 18.7647ZM12.9409 16.1765H6.47033L6.47033 14.8824H12.9409L12.9409 16.1765ZM9.70562 12.9412C6.85132 12.9412 4.52915 10.619 4.52915 7.76471C4.52915 4.9104 6.85132 2.58824 9.70562 2.58824C12.5599 2.58824 14.8821 4.9104 14.8821 7.76471C14.8821 10.619 12.5599 12.9412 9.70562 12.9412Z" fill="white"/>
<path d="M12.0612 8.41211C12.0075 9.45241 11.8251 10.4205 11.5337 11.1892C12.5733 10.632 13.3311 9.61512 13.5338 8.41211H12.0612Z" fill="white"/>
<path d="M7.35007 8.41211H5.87744C6.08014 9.61512 6.83794 10.632 7.87755 11.1892C7.58612 10.4205 7.40377 9.45241 7.35007 8.41211Z" fill="white"/>
</svg>
