<svg width="34" height="34" viewBox="0 0 34 34" fill="none" xmlns="http://www.w3.org/2000/svg">
<path d="M8.49984 18.4162C10.1073 18.4162 11.4125 17.8797 12.4065 17.2222C12.6143 17.0848 12.8853 17.0848 13.0932 17.2222C14.0872 17.8797 15.3924 18.4162 16.9998 18.4162C18.6073 18.4162 19.9125 17.8797 20.9065 17.2222C21.1143 17.0848 21.3853 17.0848 21.5932 17.2222C22.5872 17.8797 23.8924 18.4162 25.4998 18.4162C26.1252 18.4162 26.757 18.3633 27.3746 18.2383C27.8516 18.1417 28.3332 18.486 28.3332 18.9726V25.4996C28.3332 27.8468 26.4304 29.7496 24.0832 29.7496H21.2498C20.4674 29.7496 19.8332 29.1153 19.8332 28.3329V24.0829C19.8332 22.5181 18.5646 21.2496 16.9998 21.2496C15.435 21.2496 14.1665 22.5181 14.1665 24.0829V28.3329C14.1665 29.1153 13.5322 29.7496 12.7498 29.7496H9.9165C7.56929 29.7496 5.6665 27.8468 5.6665 25.4996V18.9726C5.6665 18.486 6.1481 18.1417 6.62505 18.2383C7.24263 18.3633 7.87448 18.4162 8.49984 18.4162Z" fill="white"/>
<path d="M6.94187 6.00161C7.88913 4.83483 9.34432 4.24805 10.8472 4.24805H23.1528C24.6557 4.24805 26.1109 4.83483 27.0581 6.00161C28.2711 7.49572 29.75 9.66003 29.75 11.3314C29.75 14.1647 28.3333 15.5814 25.5 15.5814C23.4104 15.5814 22.0914 14.0403 21.5429 13.2313C21.4118 13.038 21.0882 13.038 20.9571 13.2313C20.4086 14.0403 19.0896 15.5814 17 15.5814C14.9104 15.5814 13.5914 14.0403 13.0429 13.2313C12.9118 13.038 12.5882 13.038 12.4571 13.2313C11.9086 14.0403 10.5896 15.5814 8.5 15.5814C5.66667 15.5814 4.25 14.1647 4.25 11.3314C4.25 9.66003 5.72887 7.49572 6.94187 6.00161Z" fill="white"/>
</svg>
