<svg width="24" height="25" viewBox="0 0 24 25" fill="none" xmlns="http://www.w3.org/2000/svg">
<path d="M6 13.413C7.13466 13.413 8.05598 13.0337 8.75764 12.569C8.90434 12.4718 9.09565 12.4718 9.24235 12.569C9.94402 13.0337 10.8653 13.413 12 13.413C13.1347 13.413 14.056 13.0337 14.7576 12.569C14.9043 12.4718 15.0957 12.4718 15.2424 12.569C15.944 13.0337 16.8653 13.413 18 13.413C18.4414 13.413 18.8874 13.3755 19.3234 13.2872C19.6601 13.2189 20 13.4622 20 13.8062V18.4199C20 20.0791 18.6569 21.4241 17 21.4241H15C14.4477 21.4241 14 20.9758 14 20.4227V17.4186C14 16.3124 13.1046 15.4158 12 15.4158C10.8954 15.4158 10 16.3124 10 17.4186V20.4227C10 20.9758 9.55228 21.4241 9 21.4241H7C5.34315 21.4241 4 20.0791 4 18.4199V13.8062C4 13.4622 4.33995 13.2189 4.67662 13.2872C5.11256 13.3755 5.55857 13.413 6 13.413Z" fill="url(#paint0_linear_2731_2663)"/>
<path d="M4.90014 4.63798C5.5688 3.81321 6.59599 3.39844 7.65685 3.39844H16.3431C17.404 3.39844 18.4312 3.81321 19.0999 4.63797C19.9561 5.69411 21 7.22399 21 8.40542C21 10.4082 20 11.4096 18 11.4096C16.525 11.4096 15.5939 10.3203 15.2067 9.74838C15.1142 9.61178 14.8858 9.61178 14.7933 9.74838C14.4061 10.3203 13.475 11.4096 12 11.4096C10.525 11.4096 9.59391 10.3203 9.20672 9.74838C9.11424 9.61178 8.88576 9.61178 8.79328 9.74838C8.40609 10.3203 7.47499 11.4096 6 11.4096C4 11.4096 3 10.4082 3 8.40542C3 7.22399 4.04391 5.69411 4.90014 4.63798Z" fill="url(#paint1_linear_2731_2663)"/>
<defs>
<linearGradient id="paint0_linear_2731_2663" x1="12" y1="12.4961" x2="12" y2="21.4241" gradientUnits="userSpaceOnUse">
<stop stop-color="#58E1CA"/>
<stop offset="1" stop-color="#23B39B"/>
</linearGradient>
<linearGradient id="paint1_linear_2731_2663" x1="12" y1="3.39844" x2="12" y2="11.4096" gradientUnits="userSpaceOnUse">
<stop stop-color="#58E1CA"/>
<stop offset="1" stop-color="#23B39B"/>
</linearGradient>
</defs>
</svg>
