<svg width="29" height="33" viewBox="0 0 29 33" fill="none" xmlns="http://www.w3.org/2000/svg">
<mask id="mask0_2754_2664" style="mask-type:alpha" maskUnits="userSpaceOnUse" x="13" y="3" width="14" height="11">
<path fill-rule="evenodd" clip-rule="evenodd" d="M15.5318 9.99329C15.3401 9.9935 15.1569 9.91292 15.0265 9.77086L13.4437 8.0477C13.2855 7.86162 13.3426 7.5746 13.5594 7.46453L14.3928 7.04147C14.4977 6.98828 14.6216 6.98812 14.7266 7.04106L16.2292 7.79848L18.3727 6.71063L15.1282 4.67325C14.9604 4.48882 15.014 4.19308 15.2356 4.08072L16.6011 3.38768C16.7207 3.327 16.8638 3.33582 16.975 3.41074L21.517 5.11499L23.5629 4.07678C24.1183 3.79516 24.7349 3.63192 25.3548 3.67221C26.0508 3.71748 26.4148 3.93971 26.5646 4.2423C26.7147 4.54469 26.6734 4.97273 26.2931 5.56421C25.9544 6.09111 25.4566 6.49339 24.9012 6.77522L18.8585 9.84168C18.6677 9.93861 18.4568 9.98927 18.2429 9.98955L15.5318 9.99329ZM13.6859 11.9875H26.3131C26.4967 11.9875 26.6454 12.1362 26.6454 12.3198L26.6454 12.9844C26.6454 13.168 26.4967 13.3167 26.3131 13.3167H13.6859C13.5023 13.3167 13.3536 13.168 13.3536 12.9844L13.3536 12.3198C13.3536 12.1362 13.5023 11.9875 13.6859 11.9875Z" fill="white"/>
</mask>
<g mask="url(#mask0_2754_2664)">
<rect x="11.9995" width="16" height="16" fill="white"/>
</g>
<mask id="mask1_2754_2664" style="mask-type:alpha" maskUnits="userSpaceOnUse" x="2" y="15" width="17" height="17">
<path fill-rule="evenodd" clip-rule="evenodd" d="M17.4263 19.5404H17.6737C18.0834 19.5404 18.4159 19.8725 18.4159 20.2826L18.4159 22.7565C18.4159 23.1663 18.0834 23.4987 17.6737 23.4987H17.4263L17.4263 28.6445C17.4263 29.0404 17.1294 29.4362 16.6346 29.4362H16.4367L16.4367 30.4258C16.4367 30.9722 15.9935 31.4154 15.4471 31.4154H14.4575C13.9111 31.4154 13.4679 30.9722 13.4679 30.4258L13.4679 29.4362H7.53044L7.53044 30.4258C7.53044 30.9722 7.08729 31.4154 6.54085 31.4154H5.55127C5.00483 31.4154 4.56169 30.9722 4.56169 30.4258L4.56169 29.4362C4.01525 29.4362 3.5721 28.993 3.5721 28.4466L3.5721 23.4987H3.32471C2.91496 23.4987 2.58252 23.1663 2.58252 22.7565L2.58252 20.2826C2.58252 19.8725 2.91496 19.5404 3.32471 19.5404H3.5721L3.5721 18.056C3.5721 16.6706 6.63981 15.582 10.4992 15.582C14.3586 15.582 17.4263 16.6706 17.4263 18.056L17.4263 19.5404ZM7.77805 17.5621C7.64137 17.5621 7.53066 17.6728 7.53066 17.8095L7.53066 18.3043C7.53066 18.441 7.64137 18.5517 7.77805 18.5517H13.2208C13.3574 18.5517 13.4682 18.441 13.4682 18.3043L13.4682 17.8095C13.4682 17.6728 13.3574 17.5621 13.2208 17.5621H7.77805ZM6.04584 27.9518C5.4994 27.9518 5.05626 27.5087 5.05626 26.9622C5.05626 26.4158 5.4994 25.9727 6.04584 25.9727C6.59228 25.9727 7.03542 26.4158 7.03542 26.9622C7.03542 27.5087 6.59228 27.9518 6.04584 27.9518ZM6.54085 24.4874H10.0044L10.0044 19.5395H6.54085C5.99442 19.5395 5.55127 19.9826 5.55127 20.5291L5.55127 23.4978C5.55127 24.0442 5.99442 24.4874 6.54085 24.4874ZM10.9938 24.4874L10.9938 19.5395H14.4573C15.0037 19.5395 15.4469 19.9826 15.4469 20.5291L15.4469 23.4978C15.4469 24.0442 15.0037 24.4874 14.4573 24.4874H10.9938ZM13.9625 26.9622C13.9625 27.5087 14.4057 27.9518 14.9521 27.9518C15.4985 27.9518 15.9417 27.5087 15.9417 26.9622C15.9417 26.4158 15.4985 25.9727 14.9521 25.9727C14.4057 25.9727 13.9625 26.4158 13.9625 26.9622Z" fill="white"/>
</mask>
<g mask="url(#mask1_2754_2664)">
<rect x="0.999512" y="14" width="19" height="19" fill="white"/>
</g>
</svg>
