<svg width="25" height="25" viewBox="0 0 25 25" fill="none" xmlns="http://www.w3.org/2000/svg">
<path fill-rule="evenodd" clip-rule="evenodd" d="M18.4616 8.96728L22.6959 8.96728C22.6912 5.56789 20.6513 3.58203 17.1999 3.58203L8.16192 3.58203C4.71043 3.58203 2.6761 5.5679 2.68077 8.92392L2.69095 16.2517C2.69562 19.6077 4.73547 21.5936 8.18696 21.5936L17.2249 21.5936C20.6764 21.5936 22.7107 19.6077 22.7061 16.2517L22.7056 15.9395L18.4713 15.9395C16.5062 15.9395 14.9109 14.3865 14.9082 12.4707C14.9056 10.555 16.4965 9.00197 18.4617 9.00197L18.4616 8.96728ZM18.4637 10.4588L21.9508 10.4588C22.3635 10.4588 22.6985 10.785 22.699 11.1873L22.7025 13.7195C22.6983 14.1198 22.367 14.4432 21.9563 14.4479L18.5493 14.4479C17.5545 14.461 16.6836 13.7969 16.4566 12.8523C16.3428 12.2659 16.5006 11.6608 16.8877 11.1991C17.2748 10.7375 17.8517 10.4665 18.4637 10.4588ZM18.6186 13.1211L18.9478 13.1211C19.3703 13.1211 19.7123 12.7872 19.7117 12.3753C19.7112 11.9634 19.3682 11.6295 18.9457 11.6295L18.6165 11.6295C18.4145 11.6272 18.22 11.7039 18.0764 11.8424C17.9329 11.9808 17.8523 12.1697 17.8525 12.3667C17.8531 12.78 18.1947 13.1164 18.6186 13.1211ZM7.42218 8.96728L13.0709 8.96728C13.4934 8.96728 13.8354 8.63338 13.8349 8.22149C13.8343 7.80961 13.4913 7.47571 13.0688 7.47571L7.42011 7.47571C7.00105 7.47568 6.66042 7.80433 6.65611 8.21282C6.65666 8.62613 6.99823 8.96253 7.42218 8.96728Z" fill="url(#paint0_linear_2731_2666)"/>
<defs>
<linearGradient id="paint0_linear_2731_2666" x1="12.6809" y1="3.58203" x2="12.6809" y2="21.5936" gradientUnits="userSpaceOnUse">
<stop stop-color="#58E1CA"/>
<stop offset="1" stop-color="#23B39B"/>
</linearGradient>
</defs>
</svg>
